<?xml version="1.0" standalone="no"?>
<!DOCTYPE svg PUBLIC "-//W3C//DTD SVG 20010904//EN"
 "http://www.w3.org/TR/2001/REC-SVG-20010904/DTD/svg10.dtd">
<svg version="1.0" xmlns="http://www.w3.org/2000/svg"
 width="110.000000pt" height="90.000000pt" viewBox="0 0 110.000000 90.000000"
 preserveAspectRatio="xMidYMid meet">
<metadata>
Created by potrace 1.12, written by Peter Selinger 2001-2015
</metadata>
<g transform="translate(0.000000,90.000000) scale(0.100000,-0.100000)"
fill="#000000" stroke="none">
<path d="M390 813 c-14 -10 -38 -16 -56 -14 -18 1 -35 -2 -38 -8 -9 -14 -66
-41 -86 -41 -22 0 -70 -38 -70 -55 0 -8 -12 -20 -28 -27 -15 -7 -28 -23 -30
-35 -2 -12 -12 -25 -24 -28 -25 -8 -51 -70 -44 -101 3 -12 2 -26 -4 -29 -12
-8 -13 -62 -1 -69 4 -3 6 -17 3 -31 -2 -15 2 -33 11 -43 8 -9 17 -28 19 -42 1
-14 13 -29 25 -35 12 -5 24 -19 28 -32 3 -13 16 -25 30 -29 14 -3 25 -14 27
-27 2 -12 16 -28 33 -37 28 -14 37 -20 69 -48 8 -6 23 -12 32 -12 10 0 28 -9
40 -21 12 -12 27 -18 33 -14 14 8 14 52 1 60 -6 4 -8 15 -5 25 3 10 2 21 -3
24 -6 3 -6 25 -1 53 5 26 7 53 5 59 -3 7 4 14 15 17 10 3 19 12 19 21 0 12 10
16 34 16 19 0 38 5 41 10 5 8 11 8 20 0 7 -6 21 -7 35 -2 12 4 52 5 89 0 36
-4 72 -6 79 -3 6 2 12 -2 12 -10 0 -8 9 -20 20 -28 13 -9 18 -20 14 -31 -3 -9
-2 -22 3 -29 13 -17 10 -112 -4 -129 -12 -14 -7 -58 7 -58 4 0 15 9 25 20 10
11 27 20 37 20 10 0 41 16 69 35 28 19 55 35 60 35 5 0 11 11 15 25 3 14 13
25 21 25 7 0 22 13 31 30 9 16 22 30 29 30 18 0 35 38 28 60 -4 11 -2 20 3 20
17 0 23 32 28 132 l4 98 -29 21 c-16 12 -32 32 -36 46 -4 16 -15 25 -36 30
-18 3 -34 14 -39 27 -12 31 -36 49 -70 50 -16 1 -32 7 -35 14 -2 6 -12 12 -21
12 -10 0 -26 7 -36 17 -29 26 -181 52 -202 34 -10 -8 -16 -9 -21 -1 -8 13 -52
13 -60 0 -4 -7 -14 -5 -28 5 -28 20 -57 19 -87 -2z m230 -278 c0 -16 6 -25 15
-25 9 0 15 9 15 25 0 21 5 25 30 25 l30 0 0 -65 0 -65 -30 0 c-25 0 -30 4 -30
25 0 16 -6 25 -15 25 -9 0 -15 -9 -15 -25 0 -21 -5 -25 -30 -25 l-30 0 0 65 0
65 30 0 c25 0 30 -4 30 -25z"/>
</g>
</svg>
